<svg width="110" height="12" viewBox="0 0 110 12" fill="none" xmlns="http://www.w3.org/2000/svg">
<g clip-path="url(#clip0_13_21)">
<path d="M109.973 10.622C109.815 10.6873 109.623 10.762 109.399 10.846C109.175 10.93 108.933 10.9953 108.671 11.042C108.419 11.098 108.163 11.126 107.901 11.126C107.556 11.126 107.239 11.0653 106.949 10.944C106.66 10.8227 106.427 10.6313 106.249 10.37C106.081 10.0993 105.997 9.74933 105.997 9.32V5.106H105.031V3.664H105.997V1.284H107.873V3.664H109.413V5.106H107.873V8.69C107.883 8.942 107.953 9.124 108.083 9.236C108.214 9.348 108.377 9.404 108.573 9.404C108.769 9.404 108.961 9.37133 109.147 9.306C109.334 9.24067 109.483 9.18467 109.595 9.138L109.973 10.622Z" fill="#1E1F24"/>
<path d="M96.0509 11.14C95.4536 11.14 94.9169 11.042 94.4409 10.846C93.9649 10.6407 93.5589 10.3607 93.2229 10.006C92.8869 9.64199 92.6256 9.23132 92.4389 8.77399C92.2616 8.31666 92.1729 7.83599 92.1729 7.33199C92.1729 6.64132 92.3269 6.01132 92.6349 5.44199C92.9523 4.86332 93.4003 4.40132 93.9789 4.05599C94.5576 3.71066 95.2436 3.53799 96.0369 3.53799C96.8303 3.53799 97.5116 3.71066 98.0809 4.05599C98.6503 4.40132 99.0749 4.85399 99.3549 5.41399L97.5209 5.97399C97.3623 5.70332 97.1523 5.49799 96.8909 5.35799C96.6296 5.20866 96.3403 5.13399 96.0229 5.13399C95.6683 5.13399 95.3416 5.22732 95.0429 5.41399C94.7536 5.59132 94.5249 5.84799 94.3569 6.18399C94.1889 6.51066 94.1049 6.89332 94.1049 7.33199C94.1049 7.76132 94.1889 8.14399 94.3569 8.47999C94.5343 8.80666 94.7676 9.06799 95.0569 9.26399C95.3463 9.45066 95.6683 9.54399 96.0229 9.54399C96.2469 9.54399 96.4569 9.50666 96.6529 9.43199C96.8583 9.35732 97.0403 9.25466 97.1989 9.12399C97.3576 8.99332 97.4743 8.84399 97.5489 8.67599L99.3829 9.23599C99.2149 9.59999 98.9676 9.92666 98.6409 10.216C98.3236 10.5053 97.9456 10.734 97.5069 10.902C97.0776 11.0607 96.5923 11.14 96.0509 11.14Z" fill="#1E1F24"/>
<path d="M82.6161 11.14C82.0281 11.14 81.4961 11.042 81.0201 10.846C80.5441 10.6407 80.1381 10.3653 79.8021 10.02C79.4661 9.66532 79.2047 9.26399 79.0181 8.81599C78.8407 8.35866 78.7521 7.87799 78.7521 7.37399C78.7521 6.67399 78.9061 6.03466 79.2141 5.45599C79.5314 4.87732 79.9794 4.41532 80.5581 4.06999C81.1461 3.71532 81.8367 3.53799 82.6301 3.53799C83.4327 3.53799 84.1187 3.71532 84.6881 4.06999C85.2574 4.41532 85.6914 4.87732 85.9901 5.45599C86.2981 6.02532 86.4521 6.64132 86.4521 7.30399C86.4521 7.41599 86.4474 7.53266 86.4381 7.65399C86.4287 7.76599 86.4194 7.85932 86.4101 7.93399H80.7401C80.7774 8.30732 80.8847 8.63399 81.0621 8.91399C81.2487 9.19399 81.4821 9.40866 81.7621 9.55799C82.0514 9.69799 82.3594 9.76799 82.6861 9.76799C83.0594 9.76799 83.4094 9.67932 83.7361 9.50199C84.0721 9.31532 84.3007 9.07266 84.4221 8.77399L86.0321 9.22199C85.8547 9.59532 85.5981 9.92666 85.2621 10.216C84.9354 10.5053 84.5481 10.734 84.1001 10.902C83.6521 11.0607 83.1574 11.14 82.6161 11.14ZM80.6981 6.74399H84.5341C84.4967 6.37066 84.3894 6.04866 84.2121 5.77799C84.0441 5.49799 83.8201 5.28332 83.5401 5.13399C83.2601 4.97532 82.9474 4.89599 82.6021 4.89599C82.2661 4.89599 81.9581 4.97532 81.6781 5.13399C81.4074 5.28332 81.1834 5.49799 81.0061 5.77799C80.8381 6.04866 80.7354 6.37066 80.6981 6.74399Z" fill="#1E1F24"/>
<path d="M73.2791 10.622C73.1204 10.6873 72.9291 10.762 72.7051 10.846C72.4811 10.93 72.2384 10.9953 71.9771 11.042C71.7251 11.098 71.4684 11.126 71.2071 11.126C70.8617 11.126 70.5444 11.0653 70.2551 10.944C69.9657 10.8227 69.7324 10.6313 69.5551 10.37C69.3871 10.0993 69.3031 9.74933 69.3031 9.32V5.106H68.3371V3.664H69.3031V1.284H71.1791V3.664H72.7191V5.106H71.1791V8.69C71.1884 8.942 71.2584 9.124 71.3891 9.236C71.5197 9.348 71.6831 9.404 71.8791 9.404C72.0751 9.404 72.2664 9.37133 72.4531 9.306C72.6397 9.24067 72.7891 9.18467 72.9011 9.138L73.2791 10.622Z" fill="#1E1F24"/>
<path d="M60.2747 11V3.664H62.1507V11H60.2747ZM60.2747 2.642V0.779999H62.1507V2.642H60.2747Z" fill="#1E1F24"/>
<path d="M53.6035 11H51.7275V6.884C51.7275 6.31467 51.6155 5.89 51.3915 5.61C51.1768 5.33 50.8781 5.19 50.4955 5.19C50.2715 5.19 50.0335 5.25533 49.7815 5.386C49.5295 5.51667 49.3008 5.69867 49.0955 5.932C48.8995 6.156 48.7548 6.41733 48.6615 6.716V11H46.7855V0.779999H48.6615V5.022C48.9321 4.55533 49.3008 4.19133 49.7675 3.93C50.2341 3.66867 50.7428 3.538 51.2935 3.538C51.7695 3.538 52.1568 3.622 52.4555 3.79C52.7541 3.94867 52.9875 4.168 53.1555 4.448C53.3235 4.71867 53.4401 5.02667 53.5055 5.372C53.5708 5.708 53.6035 6.058 53.6035 6.422V11Z" fill="#1E1F24"/>
<path d="M37.2591 11.14C36.6618 11.14 36.1251 11.042 35.6491 10.846C35.1731 10.6407 34.7671 10.3607 34.4311 10.006C34.0951 9.64199 33.8338 9.23132 33.6471 8.77399C33.4698 8.31666 33.3811 7.83599 33.3811 7.33199C33.3811 6.64132 33.5351 6.01132 33.8431 5.44199C34.1605 4.86332 34.6085 4.40132 35.1871 4.05599C35.7658 3.71066 36.4518 3.53799 37.2451 3.53799C38.0385 3.53799 38.7198 3.71066 39.2891 4.05599C39.8585 4.40132 40.2831 4.85399 40.5631 5.41399L38.7291 5.97399C38.5705 5.70332 38.3605 5.49799 38.0991 5.35799C37.8378 5.20866 37.5485 5.13399 37.2311 5.13399C36.8765 5.13399 36.5498 5.22732 36.2511 5.41399C35.9618 5.59132 35.7331 5.84799 35.5651 6.18399C35.3971 6.51066 35.3131 6.89332 35.3131 7.33199C35.3131 7.76132 35.3971 8.14399 35.5651 8.47999C35.7425 8.80666 35.9758 9.06799 36.2651 9.26399C36.5545 9.45066 36.8765 9.54399 37.2311 9.54399C37.4551 9.54399 37.6651 9.50666 37.8611 9.43199C38.0665 9.35732 38.2485 9.25466 38.4071 9.12399C38.5658 8.99332 38.6825 8.84399 38.7571 8.67599L40.5911 9.23599C40.4231 9.59999 40.1758 9.92666 39.8491 10.216C39.5318 10.5053 39.1538 10.734 38.7151 10.902C38.2858 11.0607 37.8005 11.14 37.2591 11.14Z" fill="#1E1F24"/>
<path d="M27.8528 5.28801C27.2834 5.28801 26.7748 5.40001 26.3268 5.62401C25.8788 5.83868 25.5568 6.15135 25.3608 6.56201V11H23.4848V3.66401H25.2068V5.23201C25.4681 4.72801 25.7994 4.33134 26.2008 4.04201C26.6021 3.75268 27.0268 3.59401 27.4748 3.56601C27.5774 3.56601 27.6568 3.56601 27.7128 3.56601C27.7688 3.56601 27.8154 3.57068 27.8528 3.58001V5.28801Z" fill="#1E1F24"/>
<path d="M11.9225 1.06H13.8825L17.5365 11H15.5485L14.6245 8.522H11.1525L10.2425 11H8.25453L11.9225 1.06ZM14.2745 7.164L12.9025 3.062L11.4745 7.164H14.2745Z" fill="#1E1F24"/>
<path d="M0.811996 11V8.98401H2.352V11H0.811996Z" fill="#1E1F24"/>
</g>
<defs>
<clipPath id="clip0_13_21">
<rect width="110" height="12" fill="white"/>
</clipPath>
</defs>
</svg>
